<svg xmlns="http://www.w3.org/2000/svg" xmlns:inkscape="http://www.inkscape.org/namespaces/inkscape" version="1.1" width="294.616516" height="126.126495" viewBox="158.691589 360.109009 294.616516 126.126495" preserveAspectRatio="xMidYMid meet">
  <!-- Original vector artwork from SOMAliving.pdf, page 1. Only the page background is omitted. -->
  <defs>
    <clipPath id="clip_1">
      <path transform="matrix(1,0,0,-1,0,792)" d="M0 792H612V0H0Z" />
    </clipPath>
  </defs>
  <g inkscape:groupmode="layer" inkscape:label="Layer 1">
    <path transform="matrix(1,0,0,-1,363.1528,484.7183)" d="M0 0V-1.155H-14.092V22.341H-12.87V0Z" fill="#1a1515" />
    <path transform="matrix(1,0,0,-1,0,792)" d="M368.3 329.623H369.52198V306.12699H368.3Z" fill="#1a1515" />
    <g clip-path="url(#clip_1)">
      <path transform="matrix(1,0,0,-1,383.019,485.873)" d="M0 0-8.977 23.496H-7.689L-3.399 12.243C-2.938 11.055-1.838 8.173-.1 3.597L.792 1.221H.857C1.319 2.409 2.42 5.291 4.158 9.867L5.049 12.243 9.339 23.496H10.659L1.683 0Z" fill="#1a1515" />
      <path transform="matrix(1,0,0,-1,0,792)" d="M398.166 329.623H399.38798V306.12699H398.166Z" fill="#1a1515" />
      <path transform="matrix(1,0,0,-1,423.0483,485.873)" d="M0 0-6.766 10.758-14.059 22.275H-14.091V9.966 0H-15.313V23.496H-13.398L-6.633 12.738 .66 1.221H.692V13.53 23.496H1.947V0Z" fill="#1a1515" />
      <path transform="matrix(1,0,0,-1,447.7476,463.9775)" d="M0 0C1.552-1.309 2.426-3.053 2.624-5.23H1.337C1.095-3.382 .324-1.92-.973-.841-2.271 .236-3.987 .775-6.121 .775-7.947 .775-9.537 .335-10.89-.544-12.242-1.425-13.277-2.695-13.991-4.356-14.707-6.018-15.064-7.981-15.064-10.247-15.064-12.491-14.724-14.421-14.041-16.038-13.359-17.655-12.375-18.898-11.088-19.767-9.801-20.636-8.277-21.07-6.518-21.07-4.163-21.07-2.238-20.284-.742-18.711 .754-17.138 1.502-14.603 1.502-11.104H-5.923V-9.95H2.689V-21.896H1.502V-16.648H1.469C.963-18.365-.011-19.729-1.451-20.741-2.893-21.752-4.614-22.258-6.616-22.258-8.596-22.258-10.317-21.775-11.78-20.807-13.244-19.839-14.366-18.453-15.146-16.648-15.928-14.845-16.318-12.71-16.318-10.247-16.318-7.738-15.911-5.566-15.097-3.729-14.283-1.893-13.106-.484-11.566 .495-10.026 1.474-8.212 1.963-6.121 1.963-3.592 1.963-1.551 1.309 0 0" fill="#1a1515" />
      <path transform="matrix(1,0,0,-1,277.701,396.1027)" d="M0 0C0 12.49-6.668 21.503-18.219 21.503-29.769 21.503-36.437 12.49-36.437 0-36.437-12.771-29.769-21.976-18.219-21.976-6.668-21.976 0-12.771 0 0M-53.338 0C-53.338 20.752-39.066 35.496-18.219 35.496 2.535 35.496 16.996 21.035 16.996 0 16.996-21.318 3.192-35.686-18.219-35.686-39.535-35.686-53.338-21.318-53.338 0" fill="#1a1515" />
      <path transform="matrix(1,0,0,-1,300.8878,361.9218)" d="M0 0H25.544L32.681-26.2C34.652-33.711 36.811-41.694 39.348-51.836H39.629C42.352-41.036 44.418-33.524 46.672-24.978L53.152 0H78.601V-68.551H62.918V-33.995C62.918-26.575 63.106-20.377 63.2-13.71H62.824C61.603-19.25 59.913-25.825 58.13-32.209L47.705-68.551H30.615L20.004-32.49C18.124-26.105 16.716-19.907 15.495-13.898H15.118C15.308-19.344 15.402-25.449 15.402-32.117V-68.551H0Z" fill="#1a1515" />
      <path transform="matrix(1,0,0,-1,453.3081,419.4479)" d="M0 0-10.115 29.681-19.586 57.474H-47.989L-67.397 .525V-11.044H-54.711L-36.904 41.797H-30.672L-12.865-11.044H0Z" fill="#1a1515" />
      <path transform="matrix(1,0,0,-1,188.6467,431.8911)" d="M0 0C-.037 0-.071 .003-.108 .004-.166 .003-.22 0-.278 0Z" fill="#1a1515" />
      <path transform="matrix(1,0,0,-1,210.7856,393.437)" d="M0 0C-6.119 2.381-11.274 3.402-19.131 4.304-32.177 5.801-33.369 9.705-33.463 12.36-33.555 17.03-30.164 19.502-22.375 19.502-13.295 19.502-6.265 17.185-.424 13.065L8.383 24.325C4.954 27.072-.165 29.39-4.523 30.947-8.88 32.503-15.421 33.328-22.005 33.328-37.726 33.328-49.966 25.223-49.966 12.086-49.966 3.746-46.333-1.499-40.508-4.303-35.061-6.926-29.703-7.536-22.005-8.881-10.324-10.922-6.489-11.77-6.489-17.12-6.489-22.622-11.342-25.361-22.005-25.361-26.733-25.269-30.364-24.354-34.352-22.615-38.091-20.982-41.251-19.104-43.772-16.838L-52.094-27.458C-49.183-30.357-45.407-32.842-40.749-34.791-35.304-37.069-29.659-38.348-22.021-38.451-11.353-38.338-3.402-36.234 1.854-32.136 7.139-28.016 9.828-22.615 9.828-15.931 9.364-7.599 6.12-2.289 0 0" fill="#1a1515" />
    </g>
  </g>
</svg>
